<?xml version="1.0" standalone="no"?>
<!DOCTYPE svg PUBLIC "-//W3C//DTD SVG 20010904//EN"
 "http://www.w3.org/TR/2001/REC-SVG-20010904/DTD/svg10.dtd">
<svg version="1.0" xmlns="http://www.w3.org/2000/svg"
 width="1777.000000pt" height="1656.000000pt" viewBox="0 0 1777.000000 1656.000000"
 preserveAspectRatio="xMidYMid meet">
<metadata>
Created by potrace 1.16, written by Peter Selinger 2001-2019
</metadata>
<g transform="translate(0.000000,1656.000000) scale(0.100000,-0.100000)"
fill="#000000" stroke="none">
<path d="M1704 16549 c-176 -29 -323 -105 -450 -233 -79 -80 -97 -105 -147
-206 -80 -161 -127 -369 -127 -560 0 -48 -1 -50 -28 -50 -51 0 -276 -61 -362
-97 -293 -126 -463 -304 -531 -559 -27 -99 -30 -311 -6 -419 110 -496 528
-813 1166 -886 147 -16 524 -6 659 18 l102 19 583 -536 c321 -294 884 -811
1252 -1149 369 -338 685 -629 704 -646 33 -33 33 -33 22 -82 l-12 -49 -187
-28 c-822 -121 -1455 -289 -1756 -467 -90 -54 -190 -149 -224 -214 -37 -70
-38 -187 -3 -260 91 -183 399 -340 956 -485 199 -52 642 -140 915 -182 l219
-33 6 -55 c19 -188 40 -342 61 -460 158 -860 571 -1656 1188 -2287 70 -72 70
-73 51 -92 -17 -15 -1005 -912 -3403 -3085 -344 -312 -459 -410 -475 -408 -12
1 -65 10 -117 18 -135 22 -453 29 -592 15 -602 -65 -1008 -364 -1135 -836 -24
-90 -26 -118 -27 -280 -1 -159 2 -189 22 -258 105 -362 432 -593 907 -639 33
-3 32 0 55 -176 65 -503 358 -823 779 -850 320 -21 579 74 796 292 211 211
351 529 410 928 17 111 25 401 16 552 l-4 69 1544 1402 1544 1401 6 -396 c5
-345 8 -410 27 -510 67 -360 194 -652 407 -936 345 -458 867 -764 1433 -839
167 -22 1558 -22 1727 0 874 115 1606 779 1809 1640 49 212 57 316 57 744 l-1
395 22 -21 c23 -20 2364 -2168 2895 -2656 l283 -260 -8 -56 c-11 -90 -7 -457
7 -561 57 -423 203 -747 433 -966 127 -120 274 -202 443 -245 121 -31 362 -34
470 -5 188 50 346 161 454 319 92 135 168 359 192 569 l12 106 74 7 c41 4 121
17 178 30 507 115 776 473 725 968 -45 448 -323 778 -785 933 -277 92 -649
119 -983 69 l-114 -17 -31 29 c-18 17 -891 819 -1942 1784 -1050 964 -1910
1756 -1910 1760 0 3 57 69 127 145 158 173 255 292 373 459 249 351 457 764
592 1175 101 310 178 685 201 984 l7 99 215 34 c658 101 1235 247 1526 387
193 93 300 179 352 285 36 75 38 174 3 244 -113 231 -537 415 -1326 577 -198
40 -588 108 -757 131 -70 10 -88 15 -87 28 0 12 2348 2153 2592 2364 l43 37
116 -19 c617 -106 1221 28 1539 342 200 196 299 437 299 723 0 437 -297 740
-835 855 -49 10 -92 19 -95 19 -3 0 -6 46 -8 103 -15 500 -242 827 -649 933
-134 35 -351 38 -491 6 -431 -98 -739 -441 -865 -962 -49 -200 -60 -307 -61
-564 l0 -239 -481 -436 c-1495 -1358 -1858 -1686 -1869 -1688 -6 -1 -29 21
-51 50 -74 96 -242 281 -361 397 -852 829 -1960 1280 -3143 1280 -1084 0
-2088 -365 -2916 -1059 -132 -110 -392 -368 -507 -504 l-101 -117 -56 53 c-31
29 -548 504 -1149 1056 l-1092 1003 6 177 c20 556 -128 1030 -411 1317 -205
207 -449 306 -752 303 -70 -1 -151 -5 -179 -10z m411 -229 c147 -39 263 -109
376 -227 81 -85 114 -133 177 -259 149 -296 200 -686 146 -1105 l-6 -46 1196
-1099 c658 -604 1195 -1103 1194 -1109 -2 -5 -51 -82 -109 -170 -168 -252
-297 -493 -409 -762 l-46 -112 -1208 1109 c-664 610 -1247 1146 -1296 1190
l-88 80 -124 -24 c-689 -139 -1337 46 -1568 449 -16 28 -43 93 -61 145 -27 80
-33 114 -37 215 -5 140 9 211 65 317 111 212 419 362 803 393 l85 7 0 211 c0
186 3 223 23 302 74 296 254 472 527 515 91 14 268 4 360 -20z m14061 -54
c304 -98 462 -399 441 -840 -4 -72 -8 -140 -9 -151 -3 -18 5 -21 77 -26 321
-25 595 -137 739 -301 172 -195 179 -516 19 -790 -114 -194 -353 -348 -652
-419 -293 -70 -680 -64 -981 16 l-55 14 -35 -33 c-19 -18 -357 -325 -750 -681
-393 -357 -972 -882 -1287 -1167 -315 -285 -575 -520 -578 -521 -3 -1 -28 54
-55 123 -105 261 -270 575 -423 804 -55 83 -77 124 -71 133 5 7 412 378 904
824 1637 1485 1535 1391 1534 1419 -1 14 -5 90 -11 170 -41 603 163 1142 507
1344 149 88 270 117 465 112 118 -3 153 -7 221 -30z m-7076 -2156 c488 -31
892 -121 1340 -297 729 -287 1379 -784 1856 -1418 81 -107 147 -206 142 -211
-3 -2 -1619 -3 -3591 -2 l-3586 3 88 124 c259 362 599 708 951 968 807 596
1813 895 2800 833z m4204 -3261 c616 -94 1066 -192 1389 -305 123 -43 336
-145 362 -174 l18 -20 -6223 0 -6224 0 35 26 c53 40 242 129 359 169 324 112
784 213 1380 305 l195 30 4289 -6 c4216 -5 4292 -5 4420 -25z m-8848 -771 c-3
-35 -9 -136 -12 -225 l-7 -162 -26 5 c-14 2 -111 18 -216 35 -611 98 -1132
233 -1392 360 l-98 47 879 1 878 1 -6 -62z m8581 35 c5 -16 8 -185 8 -378 0
-280 -4 -378 -18 -490 -91 -697 -307 -1282 -682 -1845 -944 -1416 -2650 -2121
-4321 -1784 -1477 297 -2678 1360 -3158 2795 -95 285 -163 614 -197 954 -14
140 -17 537 -5 678 l8 97 4179 0 4179 0 7 -27z m1935 11 c-113 -79 -524 -209
-947 -299 -195 -42 -745 -136 -756 -129 -4 2 -7 61 -8 131 -1 71 -4 170 -7
221 l-7 92 874 0 c794 0 871 -1 851 -16z m-2595 -4230 c318 -292 722 -663 898
-825 2033 -1867 2500 -2294 2509 -2293 6 1 63 11 126 23 263 49 534 49 775 0
429 -87 704 -311 797 -652 29 -107 35 -293 13 -393 -34 -153 -118 -278 -246
-365 -149 -101 -376 -159 -620 -159 l-96 0 -6 -142 c-22 -529 -216 -821 -577
-869 -93 -13 -222 0 -327 32 -352 108 -588 458 -669 994 -27 179 -20 563 12
676 3 12 -137 147 -473 455 -263 242 -642 590 -843 774 -201 185 -754 693
-1230 1129 -476 437 -873 801 -883 810 -13 13 -24 60 -42 188 -31 210 -75 449
-121 652 -19 85 -31 157 -27 161 4 3 69 52 143 107 74 55 169 130 210 166 41
36 80 65 87 64 7 -1 272 -241 590 -533z m-6362 460 c43 -36 122 -99 176 -140
55 -41 99 -79 99 -84 0 -5 -9 -49 -21 -97 -64 -273 -139 -689 -159 -883 -6
-63 -16 -125 -20 -136 -5 -12 -199 -195 -431 -405 -233 -211 -525 -476 -649
-589 -347 -315 -1356 -1230 -1829 -1659 l-423 -384 6 -56 c29 -241 25 -477
-10 -681 -94 -539 -358 -882 -739 -961 -243 -50 -445 0 -592 147 -152 153
-233 406 -237 734 l-1 125 -110 2 c-608 12 -928 320 -851 820 54 355 294 604
693 717 270 77 592 84 916 20 l127 -26 98 89 c53 49 342 312 642 584 1573
1426 2301 2086 2740 2486 267 243 488 442 492 442 3 1 41 -28 83 -65z m565
-404 c127 -84 441 -238 663 -326 l147 -58 0 -379 0 -378 -22 6 c-13 4 -79 30
-148 57 -253 101 -623 296 -805 424 -55 39 -60 44 -57 75 6 54 48 280 88 466
l37 173 36 -22 c20 -12 47 -29 61 -38z m4570 5 c0 -2 14 -68 31 -147 17 -79
46 -228 64 -333 31 -175 32 -190 17 -202 -56 -42 -312 -187 -452 -257 -140
-69 -420 -188 -497 -211 l-23 -6 0 378 0 379 183 72 c188 74 483 217 597 290
62 39 80 47 80 37z m-3381 -500 c236 -59 527 -107 736 -120 50 -3 118 -8 153
-11 l62 -6 0 -379 0 -379 -42 0 c-244 1 -791 89 -1030 166 l-48 16 0 380 c0
348 1 380 16 374 9 -4 78 -22 153 -41z m2311 -344 l0 -379 -32 -11 c-247 -78
-782 -161 -1045 -161 l-73 0 0 379 0 379 118 6 c309 17 602 60 858 125 82 21
155 39 162 39 9 2 12 -80 12 -377z m-3590 -113 c254 -153 705 -361 873 -403
l27 -7 0 -404 0 -404 -27 11 c-365 138 -626 269 -935 472 l-138 89 0 213 c0
194 11 421 26 503 5 32 6 33 27 19 12 -8 78 -48 147 -89z m4834 -388 l1 -325
-150 -92 c-245 -152 -590 -318 -846 -408 l-39 -14 0 403 0 404 28 6 c168 41
627 250 879 400 l108 64 9 -57 c4 -31 9 -202 10 -381z m-3264 -195 c171 -29
367 -52 538 -61 l122 -7 0 -408 0 -407 -82 5 c-330 19 -641 69 -960 154 l-78
21 0 403 0 402 157 -38 c87 -21 223 -50 303 -64z m2020 -308 l0 -404 -82 -21
c-314 -82 -607 -127 -955 -148 l-113 -6 0 409 0 410 158 6 c273 12 591 58 847
122 71 18 133 33 138 34 4 1 7 -181 7 -402z m-3662 -90 c578 -363 1213 -583
1923 -668 267 -32 762 -32 1027 0 665 80 1284 285 1822 605 145 86 140 88 120
-59 -101 -780 -694 -1441 -1460 -1629 -214 -52 -282 -56 -1043 -56 -830 0
-893 6 -1171 95 -299 97 -572 269 -798 504 -278 288 -454 638 -516 1021 -21
132 -34 260 -27 260 3 0 58 -33 123 -73z"/>
<path d="M6765 9759 c-472 -63 -880 -362 -1085 -792 -54 -112 -93 -236 -115
-365 -18 -101 -21 -340 -5 -437 95 -598 537 -1054 1135 -1172 133 -26 386 -23
522 5 408 87 742 330 946 687 60 103 102 212 140 355 29 110 30 125 31 320 1
224 -7 277 -65 458 -151 460 -554 818 -1042 923 -108 23 -356 33 -462 18z"/>
<path d="M10586 9760 c-552 -70 -1018 -465 -1171 -995 -46 -159 -58 -262 -52
-445 8 -224 44 -373 137 -562 195 -396 543 -666 983 -760 148 -31 410 -31 551
1 290 66 509 184 706 381 193 193 309 397 377 665 35 138 44 404 18 557 -96
574 -542 1031 -1117 1143 -98 19 -334 27 -432 15z"/>
<path d="M8680 7214 c-326 -70 -523 -414 -419 -729 78 -232 289 -385 534 -386
158 -1 289 53 401 165 112 112 164 237 164 396 0 275 -181 499 -450 556 -81
17 -146 17 -230 -2z"/>
</g>
</svg>
